<svg width="16" height="16" fill="none" xmlns="http://www.w3.org/2000/svg"><path fill-rule="evenodd" clip-rule="evenodd" d="M9.208.875c0-.368.299-.667.667-.667h3a2.167 2.167 0 0 1 2.167 2.167v10.5a2.167 2.167 0 0 1-2.167 2.167h-3a.667.667 0 0 1 0-1.334h3a.834.834 0 0 0 .833-.833v-10.5a.833.833 0 0 0-.833-.833h-3a.667.667 0 0 1-.667-.667ZM5.654 3.404c.26-.26.682-.26.942 0l3.746 3.745a.664.664 0 0 1 0 .952l-3.746 3.745a.667.667 0 1 1-.942-.942l2.612-2.612H.875a.667.667 0 0 1 0-1.334h7.39L5.655 4.346a.667.667 0 0 1 0-.942Z" fill="#2D3440"/></svg>